# xmcd
#
# Track frame offsets:
#	150
#	24529
#	40506
#	52867
#	71341
#	84053
#	104710
#	118662
#	134863
#	154697
#	173106
#	186060
#	199524
#	215049
#	232868
#	250188
#	268517
#
# Disc length: 3809 seconds
#
# Revision: 0
# Processed by: cddbd v1.5.2PL0 Copyright (c) Steve Scherf et al.
# Submitted via: dBpowerAMP V4.0
#
DISCID=e10edf11
DTITLE=Michael Ball - I Dreamed A Dream
DYEAR=1900
DGENRE=
TTITLE0=Music Of The Night
TTITLE1=Love Changes Everything
TTITLE2=Don't Rain On My Parade
TTITLE3=Can You Feel The Love Tonight
TTITLE4=Show Me
TTITLE5=Last Night Of The World
TTITLE6=Anthem
TTITLE7=Tell me On A Sunday
TTITLE8=The Boy From Nowhere
TTITLE9=Seasons Of Love
TTITLE10=Every Story
TTITLE11=Something's Coming
TTITLE12=I Dreamed A Dream
TTITLE13=Loving You
TTITLE14=Tell Me It's Not True
TTITLE15=Memory
TTITLE16=You'll Never Walk Alone
EXTD=
EXTT0=
EXTT1=
EXTT2=
EXTT3=
EXTT4=
EXTT5=
EXTT6=
EXTT7=
EXTT8=
EXTT9=
EXTT10=
EXTT11=
EXTT12=
EXTT13=
EXTT14=
EXTT15=
EXTT16=
PLAYORDER=
